<?xml version="1.0" encoding="UTF-8"?>
<svg xmlns="http://www.w3.org/2000/svg" xmlns:xlink="http://www.w3.org/1999/xlink" width="512" height="512" viewBox="0 0 512 512" version="1.1">
<g id="surface1">
<path style=" stroke:none;fill-rule:nonzero;fill:rgb(100%,100%,100%);fill-opacity:1;" d="M 333.484375 109.96875 C 332.203125 110.109375 330.921875 110.359375 329.6875 110.734375 C 322.171875 112.171875 315.703125 118.140625 313.671875 125.515625 C 311.625 132.890625 314.109375 141.328125 319.8125 146.421875 C 319.8125 146.421875 328.359375 153.90625 338.03125 173 C 347.71875 192.09375 357.75 221.671875 357.015625 262.59375 C 356.28125 304.234375 346.078125 333.796875 336.515625 352.96875 C 326.953125 372.125 319.046875 379.546875 319.046875 379.546875 C 309.4375 386.53125 308.1875 402.4375 316.59375 410.84375 C 325.015625 419.265625 340.90625 418.015625 347.90625 408.390625 C 347.90625 408.390625 361.703125 395.265625 373.734375 371.1875 C 385.75 347.109375 397.171875 310.625 398.03125 262.59375 C 398.890625 214.609375 387.59375 178.359375 375.25 154.015625 C 362.90625 129.671875 348.671875 116.046875 348.671875 116.046875 C 344.71875 112.078125 339.078125 109.828125 333.484375 109.96875 Z M 167.1875 128.953125 C 159.765625 128.953125 153.421875 132.0625 148.953125 137.3125 L 94.28125 201.859375 L 45.6875 201.859375 C 32.28125 201.859375 21.390625 212.734375 21.390625 226.15625 C 21.234375 250.359375 21.4375 275.109375 21.390625 299.046875 C 21.390625 312.46875 32.28125 323.34375 45.6875 323.34375 L 94.28125 323.34375 L 146.6875 383.34375 C 150.84375 390.75 158.09375 396.25 167.1875 396.25 C 180.59375 396.25 191.484375 385.359375 191.484375 371.953125 L 191.484375 153.25 C 191.484375 139.84375 180.59375 128.953125 167.1875 128.953125 Z M 260.578125 161.609375 C 259.046875 161.6875 257.515625 161.9375 256.03125 162.359375 C 248.40625 164.015625 242.015625 170.34375 240.28125 177.9375 C 238.53125 185.53125 241.546875 194.015625 247.671875 198.8125 C 247.671875 198.8125 249.890625 200.125 254.515625 209.453125 C 259.125 218.765625 264.109375 235 264.375 261.84375 C 264.65625 288.078125 259.359375 304.90625 254.515625 315 C 249.65625 325.09375 246.921875 327.140625 246.921875 327.140625 C 237.046875 333.6875 235.0625 349.390625 242.96875 358.1875 C 250.890625 366.96875 266.71875 366.640625 274.25 357.515625 C 274.25 357.515625 284.171875 348.15625 291.71875 332.453125 C 299.265625 316.765625 306.484375 293.296875 306.140625 261.078125 C 305.8125 228.734375 298.453125 205.59375 290.953125 190.46875 C 283.46875 175.328125 273.5 166.921875 273.5 166.921875 C 269.96875 163.734375 265.328125 161.828125 260.578125 161.609375 Z M 260.578125 161.609375 "/>
</g>
</svg>
