<?xml version="1.0" encoding="UTF-8"?>
<svg xmlns="http://www.w3.org/2000/svg" xmlns:xlink="http://www.w3.org/1999/xlink" width="512" height="512" viewBox="0 0 512 512" version="1.1">
<g id="surface1">
<path style=" stroke:none;fill-rule:nonzero;fill:rgb(100%,100%,100%);fill-opacity:1;" d="M 223.328125 68.328125 L 93.671875 198.328125 L 21.328125 198.328125 L 21.328125 313.671875 L 93.671875 313.671875 L 223.328125 443.671875 Z M 359.671875 101.328125 L 339.328125 121.671875 C 374.5 155.765625 396.671875 203.171875 396.671875 256 C 396.671875 308.828125 374.5 356.234375 339.328125 390.328125 L 359.671875 410.671875 C 400.046875 371.328125 425.328125 316.78125 425.328125 256 C 425.328125 195.21875 400.046875 140.671875 359.671875 101.328125 Z M 298.671875 162.328125 L 278 183 C 297.46875 201.421875 310 227.109375 310 256 C 310 284.890625 297.46875 310.578125 278 329 L 298.671875 349.671875 C 323.390625 326.015625 339 292.890625 339 256 C 339 219.109375 323.390625 185.984375 298.671875 162.328125 Z M 298.671875 162.328125 "/>
</g>
</svg>
