<?xml version="1.0" encoding="UTF-8"?>
<svg xmlns="http://www.w3.org/2000/svg" xmlns:xlink="http://www.w3.org/1999/xlink" width="512" height="512" viewBox="0 0 512 512" version="1.1">
<g id="surface1">
<path style=" stroke:none;fill-rule:nonzero;fill:rgb(100%,100%,100%);fill-opacity:1;" d="M 170.671875 117.671875 C 155.359375 117.21875 142.046875 126.46875 133.328125 138.328125 C 121.09375 152.703125 108.90625 167.296875 96.671875 181.671875 C 80.984375 182.578125 64.859375 179.421875 49.671875 184.328125 C 31.03125 190.875 19.5625 210.921875 21.671875 230.328125 C 21.90625 251.75 21.25 273.28125 22.328125 294.671875 C 25.34375 316.671875 47.078125 332.9375 69 330.671875 L 97.328125 330.671875 C 112.515625 348.140625 127.78125 365.640625 142.671875 383.328125 C 159.0625 400.359375 189.15625 397.671875 203.328125 379.328125 C 213.125 368.65625 213.78125 353.640625 213.328125 340 L 213.328125 158.328125 C 212.5 136.390625 192.65625 117.328125 170.671875 117.671875 Z M 268 158.90625 C 259.921875 159.703125 252.546875 165.5 249.90625 173.171875 C 247.25 180.84375 249.46875 189.96875 255.328125 195.578125 L 310.671875 251.25 L 255.328125 306.578125 C 246.046875 314.0625 245.203125 329.84375 253.640625 338.28125 C 262.078125 346.71875 277.84375 345.875 285.328125 336.578125 L 340.671875 281.25 L 396.328125 336.578125 C 403.828125 345.875 419.59375 346.71875 428.03125 338.28125 C 436.46875 329.84375 435.625 314.0625 426.328125 306.578125 L 370.671875 251.25 L 426.328125 195.578125 C 432.453125 189.65625 434.46875 179.875 431.1875 172 C 427.890625 164.140625 419.515625 158.703125 411 158.90625 C 405.5 159.125 400.109375 161.578125 396.328125 165.578125 L 340.671875 221.25 L 285.328125 165.578125 C 281.390625 161.421875 275.734375 158.953125 270 158.90625 C 269.328125 158.875 268.671875 158.875 268 158.90625 Z M 268 158.90625 "/>
</g>
</svg>
