<?xml version="1.0" encoding="UTF-8"?>
<svg xmlns="http://www.w3.org/2000/svg" xmlns:xlink="http://www.w3.org/1999/xlink" width="512" height="512" viewBox="0 0 512 512" version="1.1">
<g id="surface1">
<path style=" stroke:none;fill-rule:nonzero;fill:rgb(100%,100%,100%);fill-opacity:1;" d="M 403.625 58.78125 L 384.171875 78.234375 C 432.796875 125.84375 463.25 192 463.25 265.390625 C 463.25 338.78125 432.796875 404.9375 384.171875 452.546875 L 403.625 472 C 457.25 419.390625 490.671875 346.390625 490.671875 265.390625 C 490.671875 184.390625 457.25 111.390625 403.625 58.78125 Z M 214.546875 85.890625 L 90.515625 210.234375 L 21.328125 210.234375 L 21.328125 320.546875 L 90.515625 320.546875 L 214.546875 444.90625 Z M 344.953125 117.453125 L 325.5 136.90625 C 359.140625 169.515625 380.34375 214.859375 380.34375 265.390625 C 380.34375 315.921875 359.140625 361.265625 325.5 393.890625 L 344.953125 413.328125 C 383.59375 375.71875 407.765625 323.53125 407.765625 265.390625 C 407.765625 207.25 383.59375 155.0625 344.953125 117.453125 Z M 286.609375 175.796875 L 266.84375 195.5625 C 285.46875 213.1875 297.453125 237.75 297.453125 265.390625 C 297.453125 293.03125 285.46875 317.59375 266.84375 335.21875 L 286.609375 354.984375 C 310.25 332.359375 325.1875 300.671875 325.1875 265.390625 C 325.1875 230.109375 310.25 198.421875 286.609375 175.796875 Z M 286.609375 175.796875 "/>
</g>
</svg>
