<?xml version="1.0" encoding="UTF-8"?>
<svg xmlns="http://www.w3.org/2000/svg" xmlns:xlink="http://www.w3.org/1999/xlink" width="512" height="512" viewBox="0 0 512 512" version="1.1">
<g id="surface1">
<path style=" stroke:none;fill-rule:nonzero;fill:rgb(100%,100%,100%);fill-opacity:1;" d="M 403.34375 56.0625 C 395.5 57.3125 389.0625 62.953125 386.796875 70.5625 C 384.53125 78.171875 386.828125 86.40625 392.71875 91.75 C 392.71875 91.75 405.515625 103.28125 420.046875 131.234375 C 434.578125 159.1875 449.65625 202.734375 449.65625 262.59375 C 449.65625 322.140625 434.640625 364.953125 420.046875 393.203125 C 405.453125 421.46875 392.71875 433.453125 392.71875 433.453125 C 384.3125 441.21875 383.8125 454.296875 391.5625 462.6875 C 399.328125 471.078125 412.421875 471.59375 420.8125 463.828125 C 420.8125 463.828125 439.28125 445.546875 456.5 412.1875 C 473.71875 378.828125 490.671875 329.09375 490.671875 262.59375 C 490.671875 195.828125 473.71875 145.390625 456.5 112.25 C 439.265625 79.109375 420.8125 61.375 420.8125 61.375 C 416.125 56.984375 409.671875 55.015625 403.34375 56.0625 Z M 333.484375 109.96875 C 332.203125 110.109375 330.921875 110.359375 329.6875 110.734375 C 321.96875 112.21875 315.765625 117.9375 313.671875 125.515625 C 311.578125 133.078125 313.953125 141.1875 319.8125 146.421875 C 319.8125 146.421875 328.359375 153.90625 338.03125 173 C 347.71875 192.09375 357.75 221.671875 357.015625 262.59375 C 356.28125 304.234375 346.078125 333.796875 336.515625 352.96875 C 326.953125 372.125 319.046875 379.546875 319.046875 379.546875 C 312.453125 384.34375 309.296875 392.5625 311 400.546875 C 312.703125 408.515625 318.921875 414.75 326.90625 416.453125 C 334.890625 418.140625 343.109375 414.984375 347.90625 408.390625 C 347.90625 408.390625 361.703125 395.265625 373.734375 371.1875 C 385.75 347.109375 397.171875 310.625 398.03125 262.59375 C 398.890625 214.609375 387.59375 178.359375 375.25 154.015625 C 362.90625 129.671875 348.671875 116.046875 348.671875 116.046875 C 344.65625 112.015625 339.171875 109.828125 333.484375 109.96875 Z M 167.1875 128.953125 C 159.765625 128.953125 153.421875 132.0625 148.953125 137.3125 L 94.28125 201.859375 L 45.6875 201.859375 C 32.28125 201.859375 21.390625 212.734375 21.390625 226.15625 C 21.234375 250.359375 21.4375 275.109375 21.390625 299.046875 C 21.390625 312.46875 32.28125 323.34375 45.6875 323.34375 L 94.28125 323.34375 L 146.6875 383.34375 C 150.84375 390.75 158.09375 396.25 167.1875 396.25 C 180.59375 396.25 191.484375 385.359375 191.484375 371.953125 L 191.484375 153.25 C 191.484375 139.84375 180.59375 128.953125 167.1875 128.953125 Z M 260.578125 161.609375 C 259.046875 161.6875 257.515625 161.9375 256.03125 162.359375 C 248.203125 164.0625 242.0625 170.140625 240.28125 177.9375 C 238.484375 185.75 241.375 193.875 247.671875 198.8125 C 247.671875 198.8125 249.890625 200.125 254.515625 209.453125 C 259.125 218.765625 264.109375 235 264.375 261.84375 C 264.65625 288.078125 259.359375 304.90625 254.515625 315 C 249.65625 325.09375 246.921875 327.140625 246.921875 327.140625 C 240.15625 331.625 236.640625 339.640625 237.9375 347.65625 C 239.234375 355.65625 245.09375 362.171875 252.90625 364.296875 C 260.734375 366.421875 269.09375 363.765625 274.25 357.515625 C 274.25 357.515625 284.171875 348.15625 291.71875 332.453125 C 299.265625 316.765625 306.484375 293.296875 306.140625 261.078125 C 305.8125 228.734375 298.453125 205.59375 290.953125 190.46875 C 283.46875 175.328125 273.5 166.921875 273.5 166.921875 C 269.9375 163.703125 265.375 161.828125 260.578125 161.609375 Z M 260.578125 161.609375 "/>
</g>
</svg>
