<?xml version="1.0" encoding="UTF-8"?>
<svg xmlns="http://www.w3.org/2000/svg" xmlns:xlink="http://www.w3.org/1999/xlink" width="512" height="512" viewBox="0 0 512 512" version="1.1">
<g id="surface1">
<path style=" stroke:none;fill-rule:nonzero;fill:rgb(100%,100%,100%);fill-opacity:1;" d="M 170.6875 117.6875 C 155.390625 117.234375 142.125 126.453125 133.40625 138.3125 C 121.1875 152.6875 109.03125 167.21875 96.796875 181.578125 C 81.125 182.5 64.734375 179.328125 49.546875 184.25 C 30.90625 190.78125 19.484375 210.78125 21.578125 230.171875 C 21.828125 251.609375 21.171875 273.359375 22.25 294.75 C 25.25 316.765625 46.921875 332.953125 68.84375 330.6875 L 97.46875 330.6875 C 112.65625 348.171875 127.84375 365.578125 142.734375 383.28125 C 159.125 400.3125 189.140625 397.625 203.3125 379.28125 C 213.09375 368.609375 213.75 353.65625 213.296875 340.015625 C 213.28125 315.609375 213.28125 291.203125 213.296875 266.796875 C 218.03125 280.203125 231.046875 288.890625 245.25 288.09375 L 287.84375 288.09375 C 295.6875 288.125 303.265625 285.296875 309.15625 280.109375 C 315.03125 285.296875 322.609375 288.125 330.453125 288.09375 L 373.046875 288.09375 C 380.890625 288.125 388.46875 285.296875 394.359375 280.109375 C 400.234375 285.296875 407.8125 288.125 415.65625 288.09375 L 458.265625 288.09375 C 469.78125 288.25 480.5 282.203125 486.3125 272.25 C 492.125 262.296875 492.125 249.984375 486.3125 240.03125 C 480.5 230.078125 469.78125 224.03125 458.265625 224.1875 L 415.65625 224.1875 C 407.8125 224.140625 400.234375 226.984375 394.359375 232.171875 C 388.46875 226.984375 380.890625 224.140625 373.046875 224.1875 L 330.453125 224.1875 C 322.609375 224.140625 315.03125 226.984375 309.15625 232.171875 C 303.265625 226.984375 295.6875 224.140625 287.84375 224.1875 L 245.25 224.1875 C 244.140625 224.125 243.03125 224.125 241.921875 224.1875 C 228.765625 224.921875 217.40625 233.640625 213.296875 246.15625 C 213.3125 216.875 213.359375 187.578125 213.296875 158.28125 C 212.46875 136.34375 192.6875 117.34375 170.6875 117.6875 Z M 170.03125 161.609375 L 170.03125 348 C 169.8125 347.78125 169.59375 347.546875 169.359375 347.34375 L 123.421875 294.75 C 119.203125 290.015625 113.125 287.359375 106.78125 287.421875 L 64.84375 287.421875 C 64.890625 266.703125 64.71875 245.421875 64.84375 224.859375 L 106.78125 224.859375 C 113.234375 224.765625 119.328125 221.84375 123.421875 216.859375 Z M 170.03125 161.609375 "/>
</g>
</svg>
