<?xml version="1.0" encoding="UTF-8"?>
<svg xmlns="http://www.w3.org/2000/svg" xmlns:xlink="http://www.w3.org/1999/xlink" width="512" height="512" viewBox="0 0 512 512" version="1.1">
<g id="surface1">
<path style=" stroke:none;fill-rule:nonzero;fill:rgb(100%,100%,100%);fill-opacity:1;" d="M 167.1875 128.953125 C 159.765625 128.953125 153.421875 132.0625 148.953125 137.3125 L 94.28125 201.859375 L 45.6875 201.859375 C 32.28125 201.859375 21.390625 212.734375 21.390625 226.15625 C 21.234375 250.359375 21.4375 275.109375 21.390625 299.046875 C 21.390625 312.46875 32.28125 323.34375 45.6875 323.34375 L 94.28125 323.34375 L 146.6875 383.34375 C 150.84375 390.75 158.09375 396.25 167.1875 396.25 C 180.59375 396.25 191.484375 385.359375 191.484375 371.953125 L 191.484375 153.25 C 191.484375 139.84375 180.59375 128.953125 167.1875 128.953125 Z M 260.578125 161.609375 C 259.046875 161.6875 257.515625 161.9375 256.03125 162.359375 C 248.40625 164.015625 242.015625 170.34375 240.28125 177.9375 C 238.53125 185.53125 241.546875 194.015625 247.671875 198.8125 C 247.671875 198.8125 249.890625 200.125 254.515625 209.453125 C 259.125 218.765625 264.109375 235 264.375 261.84375 C 264.65625 288.078125 259.359375 304.90625 254.515625 315 C 249.65625 325.09375 246.921875 327.140625 246.921875 327.140625 C 237.046875 333.6875 235.0625 349.390625 242.96875 358.1875 C 250.890625 366.96875 266.71875 366.640625 274.25 357.515625 C 274.25 357.515625 284.171875 348.15625 291.71875 332.453125 C 299.265625 316.765625 306.484375 293.296875 306.140625 261.078125 C 305.8125 228.734375 298.453125 205.59375 290.953125 190.46875 C 283.46875 175.328125 273.5 166.921875 273.5 166.921875 C 269.96875 163.734375 265.328125 161.828125 260.578125 161.609375 Z M 260.578125 161.609375 "/>
</g>
</svg>
