<?xml version="1.0" encoding="UTF-8"?>
<svg xmlns="http://www.w3.org/2000/svg" xmlns:xlink="http://www.w3.org/1999/xlink" width="512" height="512" viewBox="0 0 512 512" version="1.1">
<g id="surface1">
<path style=" stroke:none;fill-rule:nonzero;fill:rgb(100%,100%,100%);fill-opacity:1;" d="M 170.6875 117.6875 C 155.390625 117.234375 142.125 126.453125 133.40625 138.3125 C 121.1875 152.6875 109.03125 167.21875 96.796875 181.578125 C 81.125 182.5 64.734375 179.328125 49.546875 184.25 C 30.90625 190.78125 19.484375 210.78125 21.578125 230.171875 C 21.828125 251.609375 21.171875 273.359375 22.25 294.75 C 25.25 316.765625 46.921875 332.953125 68.84375 330.6875 L 97.46875 330.6875 C 112.65625 348.171875 127.84375 365.578125 142.734375 383.28125 C 159.125 400.3125 189.140625 397.625 203.3125 379.28125 C 213.09375 368.609375 213.75 353.65625 213.296875 340.015625 C 213.28125 315.609375 213.28125 291.203125 213.296875 266.796875 C 217.859375 279.734375 231.53125 288.859375 245.25 288.09375 L 287.84375 288.09375 C 295.609375 288.125 303.328125 285.234375 309.15625 280.109375 C 314.96875 285.234375 322.703125 288.125 330.453125 288.09375 L 373.046875 288.09375 C 380.8125 288.125 388.546875 285.234375 394.359375 280.109375 C 400.171875 285.234375 407.90625 288.125 415.65625 288.09375 L 458.265625 288.09375 C 475.140625 288.328125 490.671875 273.015625 490.671875 256.140625 C 490.671875 239.25 475.140625 223.953125 458.265625 224.1875 L 415.65625 224.1875 C 407.90625 224.140625 400.171875 227.046875 394.359375 232.171875 C 388.546875 227.046875 380.8125 224.140625 373.046875 224.1875 L 330.453125 224.1875 C 322.703125 224.140625 314.96875 227.046875 309.15625 232.171875 C 303.328125 227.046875 295.609375 224.140625 287.84375 224.1875 L 245.25 224.1875 C 244.140625 224.125 243.03125 224.125 241.921875 224.1875 C 229.15625 224.890625 217.28125 234.015625 213.296875 246.15625 C 213.3125 216.875 213.359375 187.578125 213.296875 158.28125 C 212.46875 136.34375 192.6875 117.34375 170.6875 117.6875 Z M 170.6875 117.6875 "/>
</g>
</svg>
