<?xml version="1.0" encoding="UTF-8"?>
<svg xmlns="http://www.w3.org/2000/svg" xmlns:xlink="http://www.w3.org/1999/xlink" width="512" height="512" viewBox="0 0 512 512" version="1.1">
<g id="surface1">
<path style=" stroke:none;fill-rule:nonzero;fill:rgb(100%,100%,100%);fill-opacity:1;" d="M 256 21.328125 C 255.109375 21.390625 254.21875 21.5 253.328125 21.671875 C 245.171875 23.78125 239.109375 30.640625 238 39 C 237.984375 39.328125 237.984375 39.671875 238 40 C 237.65625 40.328125 237.328125 40.65625 237 41 C 236.96875 41.5625 236.96875 42.109375 237 42.671875 C 236.421875 44.15625 236.078125 45.734375 236 47.328125 L 237 206 L 183.671875 152 C 179.0625 145.109375 170.78125 141.625 162.625 143.140625 C 154.46875 144.671875 148.015625 150.90625 146.21875 159 C 144.40625 167.09375 147.59375 175.484375 154.328125 180.328125 L 228.671875 255.671875 L 154.328125 330 C 148.71875 335.15625 146.390625 342.984375 148.25 350.375 C 150.125 357.765625 155.90625 363.546875 163.296875 365.40625 C 170.6875 367.28125 178.5 364.953125 183.671875 359.328125 L 238 304.328125 L 238.671875 463 C 238.84375 464.265625 239.171875 465.5 239.671875 466.671875 C 239.65625 467 239.65625 467.328125 239.671875 467.671875 C 238.6875 476.359375 243.25 484.71875 251.09375 488.609375 C 258.921875 492.484375 268.34375 491.046875 274.671875 485 L 377.328125 375 C 384.734375 366.71875 384.296875 354.078125 376.328125 346.328125 L 286.671875 255.671875 L 376.328125 164 C 384.296875 156.25 384.734375 143.609375 377.328125 135.328125 L 272.671875 28 C 268.40625 23.359375 262.28125 20.90625 256 21.328125 Z M 265.328125 79.671875 L 333.328125 149.328125 L 266.328125 217 Z M 407.671875 178.328125 C 399.046875 178.328125 390.46875 180.953125 383.671875 187 C 376.859375 193.046875 372.328125 202.59375 372.328125 213.671875 L 372.328125 230.328125 L 372 230.328125 C 362.1875 230.328125 354 238.515625 354 248.328125 L 354 301 C 354 310.8125 362.1875 319 372 319 L 442.671875 319 C 452.484375 319 460.328125 310.8125 460.328125 301 L 460.328125 248.328125 C 460.328125 238.6875 452.90625 230.609375 443.328125 230.328125 L 443.328125 213.671875 C 443.328125 202.59375 438.46875 193.046875 431.671875 187 C 424.859375 180.953125 416.28125 178.328125 407.671875 178.328125 Z M 407.671875 196 C 412.34375 196 416.84375 197.53125 420 200.328125 C 423.15625 203.140625 425.671875 207.015625 425.671875 213.671875 L 425.671875 230.328125 L 390 230.328125 L 390 213.671875 C 390 207.015625 392.171875 203.140625 395.328125 200.328125 C 398.484375 197.53125 402.984375 196 407.671875 196 Z M 267.328125 295 L 333.328125 361.328125 L 268 431 Z M 267.328125 295 "/>
</g>
</svg>
