<?xml version="1.0" encoding="UTF-8"?>
<svg xmlns="http://www.w3.org/2000/svg" xmlns:xlink="http://www.w3.org/1999/xlink" width="512" height="512" viewBox="0 0 512 512" version="1.1">
<g id="surface1">
<path style=" stroke:none;fill-rule:nonzero;fill:rgb(100%,100%,100%);fill-opacity:1;" d="M 240.328125 21.328125 C 215.046875 24.9375 201.828125 53.15625 205.015625 76.65625 C 205.171875 104.21875 205.515625 131.78125 205.671875 159.328125 C 193.46875 146.796875 180.828125 129.828125 161.0625 131.90625 C 136.140625 132.328125 115.84375 158.90625 124.3125 182.890625 C 132.375 202.15625 150.03125 214.25 163.546875 229.3125 C 172.25 238.09375 180.96875 246.890625 189.671875 255.671875 C 170.21875 275.90625 148.921875 294.796875 130.6875 315.921875 C 114.328125 338.96875 132.171875 375.953125 160.671875 376.671875 C 179.796875 380.1875 195.328125 363.71875 207 350.328125 C 207.59375 385.953125 206.21875 421.703125 208.328125 457.25 C 212.046875 481.015625 239.828125 497.734375 261.796875 487.734375 C 281.09375 479.78125 291.4375 460.28125 306.359375 446.890625 C 329.171875 421.984375 353.046875 397.53125 374.859375 372.0625 C 387.1875 352.328125 376.84375 327.28125 359.65625 314.28125 C 340.21875 294.640625 320.78125 274.984375 301.328125 255.328125 C 325.15625 230.640625 350.046875 206.640625 373 181.328125 C 388.765625 160.875 376.546875 133.46875 357.921875 119.78125 C 327.9375 89.453125 298.8125 58.1875 268.265625 28.46875 C 260.296875 22.578125 250.0625 20.65625 240.328125 21.328125 Z M 241.671875 35 C 264.734375 32.828125 275.171875 58.375 290.890625 70.5625 C 314.359375 95.25 339.109375 118.953125 361.953125 144.109375 C 374.359375 161.65625 358.984375 179.25 345.796875 190.359375 C 324.640625 212.125 303.234375 233.640625 282 255.328125 C 308.421875 281.25 334.328125 308.234375 360.203125 334.359375 C 374.546875 350.828125 361.96875 370.9375 347.828125 382.203125 C 320.828125 411.046875 294.15625 439.796875 267.609375 468.328125 C 256.328125 480.4375 235.390625 479.640625 226.40625 464.96875 C 216.75 448.171875 222.796875 427.5 220.84375 409 C 220.78125 384.453125 220.84375 359.8125 220.671875 335.328125 C 206.140625 316.328125 191.640625 353.546875 177.453125 359.484375 C 161.609375 370.890625 138.234375 357.0625 138.34375 338 C 138.046875 318.46875 158.796875 308.890625 169.46875 295.046875 C 182.5625 281.953125 195.609375 268.796875 208.671875 255.671875 C 186.390625 232.046875 162.734375 209.671875 140.796875 185.828125 C 127.484375 168.515625 145.78125 142.375 166.625 145.875 C 184.421875 150.828125 193.765625 169.53125 207.671875 180.671875 C 211.125 182.359375 219.59375 195.890625 219.328125 188.78125 C 219.453125 146.90625 218.453125 104.984375 218.828125 63.140625 C 220.1875 50.5625 227.984375 36.734375 241.671875 35 Z M 260 113 C 259.9375 143 260.390625 173 260.328125 203 C 275.109375 188.328125 289.625 173.390625 304.328125 158.671875 C 289.796875 143.21875 274.375 128.609375 260 113 Z M 273.671875 146.671875 C 276.015625 151.328125 288 155.921875 283.09375 160.640625 C 276.578125 168.453125 271.1875 173.625 273.828125 158.328125 C 273.765625 154.4375 273.6875 150.5625 273.671875 146.671875 Z M 261.671875 309 C 261.671875 338.328125 261.671875 367.671875 261.671875 397 C 275.84375 381.953125 290.203125 367.078125 304.328125 352 C 290.0625 337.71875 276 323.21875 261.671875 309 Z M 275.671875 342.671875 C 279.296875 347.3125 289.328125 351.8125 280.6875 356.765625 C 274.296875 366.984375 275.578125 357.203125 275.671875 350.546875 C 275.671875 347.921875 275.671875 345.296875 275.671875 342.671875 Z M 275.671875 342.671875 "/>
</g>
</svg>
