<?xml version="1.0" encoding="UTF-8"?>
<svg xmlns="http://www.w3.org/2000/svg" xmlns:xlink="http://www.w3.org/1999/xlink" width="512" height="512" viewBox="0 0 512 512" version="1.1">
<g id="surface1">
<path style=" stroke:none;fill-rule:nonzero;fill:rgb(100%,100%,100%);fill-opacity:1;" d="M 253.484375 21.703125 C 245.1875 23.75 238.984375 30.671875 237.875 39.140625 C 237.875 39.453125 237.875 39.75 237.875 40.0625 C 237.5625 40.359375 237.265625 40.65625 236.96875 40.96875 C 236.921875 41.578125 236.921875 42.203125 236.96875 42.8125 C 236.421875 44.28125 236.109375 45.828125 236.046875 47.390625 L 236.96875 206.125 L 183.75 151.984375 C 179.078125 145.21875 170.84375 141.84375 162.765625 143.40625 C 154.6875 144.96875 148.296875 151.15625 146.484375 159.1875 C 144.671875 167.203125 147.765625 175.546875 154.390625 180.4375 L 228.703125 255.671875 L 154.390625 329.984375 C 146.28125 338.09375 146.28125 351.234375 154.390625 359.34375 C 162.5 367.453125 175.640625 367.453125 183.75 359.34375 L 237.875 304.296875 L 238.796875 463.015625 C 238.953125 464.265625 239.25 465.5 239.71875 466.6875 C 239.703125 466.984375 239.703125 467.296875 239.71875 467.609375 C 238.75 476.25 243.28125 484.578125 251.078125 488.46875 C 258.859375 492.359375 268.234375 491 274.578125 485.03125 L 377.34375 374.9375 C 384.625 366.71875 384.21875 354.234375 376.421875 346.5 L 286.515625 255.671875 L 376.421875 163.921875 C 384.21875 156.171875 384.625 143.703125 377.34375 135.46875 L 272.75 28.125 C 267.890625 22.765625 260.578125 20.34375 253.484375 21.703125 Z M 265.40625 79.515625 L 333.296875 149.234375 L 266.328125 217.125 Z M 267.234375 295.109375 L 333.296875 361.171875 L 268.15625 430.90625 Z M 267.234375 295.109375 "/>
</g>
</svg>
