<?xml version="1.0" encoding="UTF-8"?>
<svg xmlns="http://www.w3.org/2000/svg" xmlns:xlink="http://www.w3.org/1999/xlink" width="512" height="512" viewBox="0 0 512 512" version="1.1">
<g id="surface1">
<path style=" stroke:none;fill-rule:nonzero;fill:rgb(74.509804%,74.509804%,74.509804%);fill-opacity:1;" d="M 187 224 C 183.515625 225.15625 180.40625 227.21875 178 230 L 102 306 C 98.25 309.703125 96.09375 314.734375 96 320 L 96 380 L 8 468 C -2.0625 478.0625 -2.0625 493.9375 8 504 C 18.0625 514.0625 33.9375 514.0625 44 504 L 132 416 L 192 416 C 197.28125 415.890625 202.296875 413.75 206 410 L 282 334 C 289.53125 326.1875 289.53125 313.8125 282 306 L 206 230.03125 C 201.15625 224.84375 193.953125 222.578125 187 224.03125 Z M 187 224 "/>
<path style=" stroke:none;fill-rule:nonzero;fill:rgb(74.509804%,74.509804%,74.509804%);fill-opacity:1;" d="M 325.125 287.109375 C 328.609375 285.96875 331.71875 283.890625 334.125 281.109375 L 410.125 205.109375 C 413.875 201.40625 416.03125 196.375 416.125 191.109375 L 416.125 131.109375 L 504.125 43.109375 C 514.1875 33.046875 514.1875 17.171875 504.125 7.109375 C 494.0625 -2.953125 478.1875 -2.953125 468.125 7.109375 L 380.125 95.109375 L 320.125 95.109375 C 314.84375 95.21875 309.828125 97.375 306.125 101.109375 L 230.125 177.109375 C 222.578125 184.9375 222.578125 197.296875 230.125 205.109375 L 306.125 281.109375 C 310.96875 286.296875 318.15625 288.5625 325.109375 287.109375 Z M 325.125 287.109375 "/>
</g>
</svg>
