<?xml version="1.0" encoding="UTF-8"?>
<svg xmlns="http://www.w3.org/2000/svg" xmlns:xlink="http://www.w3.org/1999/xlink" width="512" height="512" viewBox="0 0 512 512" version="1.1">
<g id="surface1">
<path style=" stroke:none;fill-rule:nonzero;fill:rgb(100%,100%,100%);fill-opacity:1;" d="M 426.671875 85.328125 L 426.671875 245.328125 L 442.671875 309.328125 L 474.671875 309.328125 L 490.671875 245.328125 L 490.671875 85.328125 Z M 365.328125 156.328125 L 48.671875 157 C 36.03125 157 21.328125 172.84375 21.328125 184.328125 L 21.328125 376.671875 C 21.328125 391.828125 37.875 405.328125 51.671875 405.328125 L 363.671875 405.328125 C 380.203125 405.328125 394.671875 391.15625 394.671875 376.671875 L 394.671875 187 C 394.671875 170.921875 380.265625 156.328125 365.328125 156.328125 Z M 59.671875 183 L 201.671875 325 L 213.671875 325 L 356.328125 183 L 370.671875 197.328125 L 285.671875 283.328125 L 350 349 L 335.671875 363.328125 L 270.328125 297.671875 L 223 345.671875 L 193 345.671875 L 145.671875 297.671875 L 80.328125 364 L 66 349 L 131 283.328125 L 45.328125 197.328125 Z M 426.671875 341.328125 L 426.671875 405.328125 L 490.671875 405.328125 L 490.671875 341.328125 Z M 426.671875 341.328125 "/>
</g>
</svg>
