<?xml version="1.0" encoding="UTF-8"?>
<svg xmlns="http://www.w3.org/2000/svg" xmlns:xlink="http://www.w3.org/1999/xlink" width="512" height="512" viewBox="0 0 512 512" version="1.1">
<g id="surface1">
<path style=" stroke:none;fill-rule:nonzero;fill:rgb(100%,100%,100%);fill-opacity:1;" d="M 256 46.671875 C 180.203125 46.671875 122.953125 65.90625 85.34375 85.46875 C 47.71875 105.015625 27.578125 125.96875 27.578125 125.96875 C 18.765625 135.5 19.34375 150.359375 28.875 159.171875 C 38.390625 167.984375 53.265625 167.390625 62.0625 157.875 C 62.0625 157.875 75.15625 143.328125 106.890625 126.84375 C 138.625 110.34375 188.046875 93.21875 256 93.21875 C 323.59375 93.21875 372.1875 110.28125 404.265625 126.84375 C 436.34375 143.390625 449.953125 157.875 449.953125 157.875 C 458.75 167.390625 473.625 167.984375 483.140625 159.171875 C 492.671875 150.359375 493.25 135.5 484.421875 125.96875 C 484.421875 125.96875 463.6875 105.015625 425.8125 85.46875 C 387.953125 65.921875 331.484375 46.671875 256 46.671875 Z M 256 154.421875 C 201.53125 153.4375 160.375 167.125 132.75 181.140625 C 105.109375 195.15625 89.640625 210.453125 89.640625 210.453125 C 80.59375 219.96875 80.984375 235.015625 90.5 244.0625 C 100.03125 253.125 115.078125 252.734375 124.125 243.203125 C 124.125 243.203125 132.625 233.5 154.296875 222.515625 C 175.96875 211.53125 209.546875 200.125 256 200.96875 C 303.265625 201.8125 336.828125 213.390625 358.578125 224.234375 C 380.328125 235.09375 388.75 244.0625 388.75 244.0625 C 394.1875 251.546875 403.53125 255.125 412.59375 253.203125 C 421.640625 251.28125 428.71875 244.203125 430.640625 235.15625 C 432.578125 226.09375 428.984375 216.75 421.5 211.3125 C 421.5 211.3125 406.609375 196.5 379.265625 182.859375 C 351.9375 169.21875 310.515625 155.390625 256 154.421875 Z M 254.28125 264.75 C 217.5625 265.125 190.90625 272.8125 173.265625 281.125 C 155.609375 289.453125 145.671875 300.09375 145.671875 300.09375 C 136.859375 309.609375 137.4375 324.46875 146.96875 333.28125 C 156.484375 342.09375 171.34375 341.515625 180.15625 331.984375 C 180.15625 331.984375 182.453125 328.78125 193.9375 323.359375 C 205.4375 317.953125 224.671875 311.609375 255.140625 311.296875 C 284.921875 310.984375 304.859375 317.6875 317.203125 323.359375 C 329.546875 329.03125 332.71875 332.84375 332.71875 332.84375 C 342 341.890625 356.859375 341.703125 365.90625 332.421875 C 374.953125 323.140625 374.765625 308.28125 365.46875 299.234375 C 365.46875 299.234375 355.34375 288.671875 337.03125 280.265625 C 318.71875 271.859375 290.84375 264.375 254.28125 264.75 Z M 226.703125 373.359375 C 210.71875 373.359375 198.25 385.71875 198.25 400.9375 C 198.25 406.59375 199.5 412.078125 202.5625 416.453125 L 237.046875 449.21875 C 242.125 453.390625 248.78125 456.109375 256 456.109375 C 264.59375 456.109375 272.25 452.28125 277.5625 446.625 L 307.71875 417.3125 C 311.375 412.703125 313.765625 407.15625 313.765625 400.9375 C 313.765625 385.71875 301.296875 373.359375 285.3125 373.359375 Z M 226.703125 373.359375 "/>
</g>
</svg>
