<?xml version="1.0" encoding="UTF-8"?>
<svg xmlns="http://www.w3.org/2000/svg" xmlns:xlink="http://www.w3.org/1999/xlink" width="512" height="512" viewBox="0 0 512 512" version="1.1">
<g id="surface1">
<path style=" stroke:none;fill-rule:nonzero;fill:rgb(100%,100%,100%);fill-opacity:1;" d="M 405.9375 256 C 392.109375 256 378.3125 260.515625 367.390625 270.609375 C 356.453125 280.71875 349.3125 296.390625 349.3125 314.875 L 349.3125 342.859375 L 348.515625 342.859375 C 332.75 342.859375 320 356.109375 320 372.5 L 320 461.015625 C 320 477.40625 332.75 490.671875 348.515625 490.671875 L 462.15625 490.671875 C 477.90625 490.671875 490.671875 477.40625 490.671875 461.015625 L 490.671875 372.5 C 490.671875 356.40625 478.328125 343.296875 462.953125 342.859375 L 462.953125 314.875 C 462.953125 296.390625 455.8125 280.71875 444.890625 270.609375 C 433.953125 260.515625 419.765625 256 405.9375 256 Z M 405.9375 285.640625 C 413.4375 285.640625 420.953125 288.0625 426.015625 292.75 C 431.078125 297.421875 434.453125 303.78125 434.453125 314.875 L 434.453125 342.859375 L 377.828125 342.859375 L 377.828125 314.875 C 377.828125 303.78125 381.1875 297.421875 386.265625 292.75 C 391.328125 288.0625 398.4375 285.640625 405.9375 285.640625 Z M 405.9375 285.640625 "/>
</g>
</svg>
