<?xml version="1.0" encoding="UTF-8"?>
<svg xmlns="http://www.w3.org/2000/svg" xmlns:xlink="http://www.w3.org/1999/xlink" width="512" height="512" viewBox="0 0 512 512" version="1.1">
<g id="surface1">
<path style=" stroke:none;fill-rule:nonzero;fill:rgb(100%,100%,100%);fill-opacity:1;" d="M 234.71875 21.328125 C 176.9375 21.328125 130.421875 67.84375 130.421875 125.625 L 130.421875 203.859375 L 104.34375 203.859375 C 89.890625 203.859375 78.265625 215.484375 78.265625 229.921875 L 78.265625 464.59375 C 78.265625 479.03125 89.890625 490.671875 104.34375 490.671875 L 417.234375 490.671875 C 431.671875 490.671875 443.296875 479.03125 443.296875 464.59375 L 443.296875 229.921875 C 443.296875 215.484375 431.671875 203.859375 417.234375 203.859375 L 391.15625 203.859375 L 391.15625 125.625 C 391.15625 67.84375 344.640625 21.328125 286.859375 21.328125 Z M 234.71875 73.484375 L 286.859375 73.484375 C 315.75 73.484375 339.015625 96.734375 339.015625 125.625 L 339.015625 203.859375 L 182.5625 203.859375 L 182.5625 125.625 C 182.5625 96.734375 205.828125 73.484375 234.71875 73.484375 Z M 234.71875 73.484375 "/>
</g>
</svg>
